<?xml version="1.0" encoding="UTF-8" standalone="no"?>
<svg
   xmlns:dc="http://purl.org/dc/elements/1.1/"
   xmlns:cc="http://creativecommons.org/ns#"
   xmlns:rdf="http://www.w3.org/1999/02/22-rdf-syntax-ns#"
   xmlns:svg="http://www.w3.org/2000/svg"
   xmlns="http://www.w3.org/2000/svg"
   xmlns:xlink="http://www.w3.org/1999/xlink"
   xmlns:sodipodi="http://sodipodi.sourceforge.net/DTD/sodipodi-0.dtd"
   xmlns:inkscape="http://www.inkscape.org/namespaces/inkscape"
   viewBox="0 0 882.2514 604.35217"
   height="604.35217"
   width="882.2514"
   xml:space="preserve"
   id="svg2"
   version="1.1"
   sodipodi:docname="System-Analysis.svg"
   inkscape:version="0.92.4 (5da689c313, 2019-01-14)"><sodipodi:namedview
     pagecolor="#ffffff"
     bordercolor="#666666"
     borderopacity="1"
     objecttolerance="10"
     gridtolerance="10"
     guidetolerance="10"
     inkscape:pageopacity="0"
     inkscape:pageshadow="2"
     inkscape:window-width="1920"
     inkscape:window-height="1001"
     id="namedview170"
     showgrid="false"
     inkscape:zoom="1.0236095"
     inkscape:cx="470.09938"
     inkscape:cy="263.52918"
     inkscape:window-x="-9"
     inkscape:window-y="-9"
     inkscape:window-maximized="1"
     inkscape:current-layer="svg2"
     fit-margin-top="0"
     fit-margin-left="0"
     fit-margin-right="0"
     fit-margin-bottom="0" /><metadata
     id="metadata8"><rdf:RDF><cc:Work
         rdf:about=""><dc:format>image/svg+xml</dc:format><dc:type
           rdf:resource="http://purl.org/dc/dcmitype/StillImage" /><dc:title></dc:title></cc:Work></rdf:RDF></metadata><defs
     id="defs6"><linearGradient
       gradientUnits="userSpaceOnUse"
       gradientTransform="matrix(5.2946 0 0 5.2946 1106.4 -1369.9)"
       y2="306.72"
       y1="306.72"
       x2="-113.03"
       x1="-208.97"
       id="linearGradient2108-3"><stop
         id="stop1917"
         offset="0"
         stop-opacity=".94118"
         stop-color="#56ab2f" /><stop
         id="stop1919"
         offset="1"
         stop-opacity=".94118"
         stop-color="#049b30" /></linearGradient><linearGradient
       xlink:href="#linearGradient2108-3"
       gradientUnits="userSpaceOnUse"
       gradientTransform="matrix(0.06457024,0,0,0.06457024,383.99939,287.79978)"
       y2="349.21"
       y1="349.21"
       x2="482.61"
       x1="25.03"
       id="linearGradient931" /><linearGradient
       xlink:href="#linearGradient2108-3"
       gradientUnits="userSpaceOnUse"
       gradientTransform="matrix(0.25410674,0,0,0.25410674,381.33613,197.03095)"
       y2="154.59"
       y1="154.59"
       x2="472.41"
       x1="35.938"
       id="linearGradient963" /><linearGradient
       gradientUnits="userSpaceOnUse"
       gradientTransform="matrix(0.25410674,0,0,0.25410674,507.64146,142.48028)"
       y2="254"
       y1="254"
       x2="508"
       x1="-.0044"
       id="linearGradient1108"><stop
         id="stop1924"
         offset="0"
         stop-color="#485563" /><stop
         id="stop1926"
         offset="1"
         stop-color="#29323c" /></linearGradient><linearGradient
       inkscape:collect="always"
       xlink:href="#linearGradient1108"
       id="linearGradient2014"
       x1="117.34613"
       y1="437.28223"
       x2="272.47412"
       y2="437.28223"
       gradientUnits="userSpaceOnUse" /><linearGradient
       inkscape:collect="always"
       xlink:href="#linearGradient1108"
       id="linearGradient2022"
       x1="610.30878"
       y1="487.49164"
       x2="849.3288"
       y2="487.49164"
       gradientUnits="userSpaceOnUse" /><linearGradient
       inkscape:collect="always"
       xlink:href="#linearGradient1108"
       id="linearGradient2114"
       x1="438.35013"
       y1="419.97565"
       x2="568.36743"
       y2="419.97565"
       gradientUnits="userSpaceOnUse" /><linearGradient
       inkscape:collect="always"
       xlink:href="#linearGradient1108"
       id="linearGradient2116"
       x1="323.38879"
       y1="419.97565"
       x2="453.40613"
       y2="419.97565"
       gradientUnits="userSpaceOnUse" /><linearGradient
       inkscape:collect="always"
       xlink:href="#linearGradient1108"
       id="linearGradient2118"
       x1="439.35812"
       y1="298.77551"
       x2="452.39813"
       y2="298.77551"
       gradientUnits="userSpaceOnUse" /><linearGradient
       inkscape:collect="always"
       xlink:href="#linearGradient1108"
       id="linearGradient2120"
       x1="432.56479"
       y1="78.125648"
       x2="459.19147"
       y2="78.125648"
       gradientUnits="userSpaceOnUse" /><linearGradient
       inkscape:collect="always"
       xlink:href="#linearGradient1108"
       id="linearGradient2229"
       gradientUnits="userSpaceOnUse"
       gradientTransform="matrix(0.25410674,0,0,0.25410674,381.33613,197.03095)"
       x1="-.0044"
       y1="254"
       x2="508"
       y2="254" /><linearGradient
       inkscape:collect="always"
       xlink:href="#linearGradient1108"
       id="linearGradient2239"
       gradientUnits="userSpaceOnUse"
       gradientTransform="matrix(0.25410674,0,0,0.25410674,507.64146,142.48028)"
       x1="-.0044"
       y1="254"
       x2="508"
       y2="254" /><linearGradient
       inkscape:collect="always"
       xlink:href="#linearGradient2108-3"
       id="linearGradient2241"
       gradientUnits="userSpaceOnUse"
       gradientTransform="matrix(0.06457024,0,0,0.06457024,636.61005,178.69844)"
       x1="25.03"
       y1="349.21"
       x2="482.61"
       y2="349.21" /><linearGradient
       inkscape:collect="always"
       xlink:href="#linearGradient2108-3"
       id="linearGradient2243"
       gradientUnits="userSpaceOnUse"
       gradientTransform="matrix(0.06457024,0,0,0.06457024,636.61005,178.69844)"
       x1="25.03"
       y1="349.21"
       x2="482.61"
       y2="349.21" /><linearGradient
       inkscape:collect="always"
       xlink:href="#linearGradient2108-3"
       id="linearGradient2245"
       gradientUnits="userSpaceOnUse"
       gradientTransform="matrix(0.25410674,0,0,0.25410674,507.64146,142.48028)"
       x1="35.938"
       y1="154.59"
       x2="472.41"
       y2="154.59" /><linearGradient
       inkscape:collect="always"
       xlink:href="#linearGradient1108"
       id="linearGradient2255"
       gradientUnits="userSpaceOnUse"
       gradientTransform="matrix(0.25410674,0,0,0.25410674,507.64146,142.48028)"
       x1="-.0044"
       y1="254"
       x2="508"
       y2="254" /><linearGradient
       inkscape:collect="always"
       xlink:href="#linearGradient2108-3"
       id="linearGradient2257"
       gradientUnits="userSpaceOnUse"
       gradientTransform="matrix(0.06457024,0,0,0.06457024,636.61005,178.69844)"
       x1="25.03"
       y1="349.21"
       x2="482.61"
       y2="349.21" /><linearGradient
       inkscape:collect="always"
       xlink:href="#linearGradient2108-3"
       id="linearGradient2259"
       gradientUnits="userSpaceOnUse"
       gradientTransform="matrix(0.06457024,0,0,0.06457024,636.61005,178.69844)"
       x1="25.03"
       y1="349.21"
       x2="482.61"
       y2="349.21" /><linearGradient
       inkscape:collect="always"
       xlink:href="#linearGradient2108-3"
       id="linearGradient2261"
       gradientUnits="userSpaceOnUse"
       gradientTransform="matrix(0.25410674,0,0,0.25410674,507.64146,142.48028)"
       x1="35.938"
       y1="154.59"
       x2="472.41"
       y2="154.59" /><linearGradient
       inkscape:collect="always"
       xlink:href="#linearGradient1108"
       id="linearGradient2269"
       x1="-1.8543358e-07"
       y1="302.17609"
       x2="877.14484"
       y2="302.17609"
       gradientUnits="userSpaceOnUse" /><linearGradient
       inkscape:collect="always"
       xlink:href="#linearGradient1108"
       id="linearGradient2277"
       x1="310.61945"
       y1="101.50299"
       x2="448.90213"
       y2="101.50299"
       gradientUnits="userSpaceOnUse" /><linearGradient
       inkscape:collect="always"
       xlink:href="#linearGradient1108"
       id="linearGradient2279"
       x1="445.46478"
       y1="101.50299"
       x2="583.74744"
       y2="101.50299"
       gradientUnits="userSpaceOnUse" /><linearGradient
       inkscape:collect="always"
       xlink:href="#linearGradient1108"
       id="linearGradient2303"
       x1="282.33279"
       y1="526.05542"
       x2="600.27679"
       y2="526.05542"
       gradientUnits="userSpaceOnUse" /><linearGradient
       inkscape:collect="always"
       xlink:href="#linearGradient1108"
       id="linearGradient2311"
       x1="576.89813"
       y1="561.38354"
       x2="882.2514"
       y2="561.38354"
       gradientUnits="userSpaceOnUse" /><linearGradient
       inkscape:collect="always"
       xlink:href="#linearGradient1108"
       id="linearGradient2319"
       x1="74.892799"
       y1="556.79297"
       x2="321.88345"
       y2="556.79297"
       gradientUnits="userSpaceOnUse" /></defs><path
     id="path14"
     style="fill:url(#linearGradient2269);fill-opacity:1;fill-rule:nonzero;stroke:none;stroke-width:0.13333333;opacity:0.5"
     d="M 810.13411,302.50831 C 790.99281,258.92032 869.11541,196.36298 730.68741,149.91232 683.27412,134.00165 647.78879,86.738984 608.20879,58.037652 555.58746,19.878986 490.76746,9.1043199 427.59013,1.4549867 398.01679,-2.1263464 365.94479,0.06965346 341.82746,17.556319 c -26.792,19.426667 -37.86533,52.247999 -57.296,77.810665 -19.33866,25.441336 -49.95866,35.897336 -79.868,43.106666 -32.11066,7.74133 -65.16266,8.37067 -88.91199,34.13867 -17.21067,18.672 -29.16134,33.52933 -52.19867,46.19066 -34.86266,19.16134 -60.70933,35.38134 -63.30533,78.12267 -2.276,37.45866 11.21467,76.044 37.69067,102.86533 22.596,22.89333 51.92399,38.688 76.65066,59.17466 9.10133,7.54134 17.48267,18.7692 20.83467,30.152 2.72933,9.272 1.276,20.43867 -6.044,26.7464 -6.93467,5.9776 -17.27734,6.33334 -24.66934,11.73494 -10.44533,7.63173 -11.744,23.59479 -6.02533,35.19839 12.36533,25.09374 43.24267,33.86408 68.47067,38.3693 4.35866,0.7776 8.72266,1.45364 13.128,1.96405 61.66133,7.15365 131.63466,-19.03068 189.85732,-28.85161 98.51067,-16.61867 190.41867,34.42922 289.176,2.29853 51.39466,-16.72133 103.11862,-43.46146 137.74262,-84.97346 23.4187,-28.0772 80.0747,-67.37854 80.0854,-100.16387 0.016,-56.56666 -54.136,-59.608 -67.0107,-88.932"
     inkscape:connector-curvature="0" /><path
     id="path30"
     style="fill:url(#linearGradient2303);fill-opacity:1;fill-rule:nonzero;stroke:none;stroke-width:0.13333333;opacity:0.496"
     d="M 591.66346,534.66818 H 290.94613 c -4.75733,0 -8.61333,-3.85574 -8.61333,-8.61187 v 0 c 0,-4.75733 3.856,-8.6136 8.61333,-8.6136 h 300.71733 c 4.75866,0 8.61333,3.85627 8.61333,8.6136 v 0 c 0,4.75613 -3.85467,8.61187 -8.61333,8.61187"
     inkscape:connector-curvature="0" /><path
     id="path32"
     style="fill:url(#linearGradient2118);fill-opacity:1.0;fill-rule:nonzero;stroke:none;stroke-width:0.13333333"
     d="m 452.39813,526.05471 h -13.04 V 71.496318 h 13.04 V 526.05471"
     inkscape:connector-curvature="0" /><path
     id="path34"
     style="fill:url(#linearGradient2114);fill-opacity:1.0;fill-rule:nonzero;stroke:none;stroke-width:0.13333333"
     d="m 568.36746,526.05631 h -15.04534 l -107.44399,-186.096 -7.528,-13.02666 7.528,-13.03867 7.528,13.03867 114.96133,199.12266"
     inkscape:connector-curvature="0" /><path
     id="path36"
     style="fill:url(#linearGradient2116);fill-opacity:1.0;fill-rule:nonzero;stroke:none;stroke-width:0.13333333"
     d="m 453.40613,326.93365 -7.528,13.02666 -107.444,186.096 H 323.3888 l 114.96133,-199.12266 7.528,-13.03867 7.528,13.03867"
     inkscape:connector-curvature="0" /><path
     id="path38"
     style="fill:url(#linearGradient2277);fill-opacity:1.0;fill-rule:nonzero;stroke:none;stroke-width:0.13333333"
     d="m 311.34213,126.33499 -0.72267,-2.08667 137.56,-47.577335 0.72267,2.086666 -137.56,47.577339"
     inkscape:connector-curvature="0" /><path
     id="path40"
     style="fill:url(#linearGradient2279);fill-opacity:1.0;fill-rule:nonzero;stroke:none;stroke-width:0.13333333"
     d="m 583.02479,126.33499 -137.56,-47.577339 0.72267,-2.086666 137.56,47.577335 -0.72267,2.08667"
     inkscape:connector-curvature="0" /><path
     id="path42"
     style="fill:url(#linearGradient2120);fill-opacity:1.0;fill-rule:nonzero;stroke:none;stroke-width:0.13333333"
     d="m 459.19146,78.125651 c 0,-7.353333 -5.96133,-13.313333 -13.31333,-13.313333 -7.352,0 -13.31334,5.96 -13.31334,13.313333 0,7.352 5.96134,13.313333 13.31334,13.313333 7.352,0 13.31333,-5.961333 13.31333,-13.313333"
     inkscape:connector-curvature="0" /><path
     id="path44"
     style="fill:#ffffff;fill-opacity:1;fill-rule:nonzero;stroke:none;stroke-width:0.13333333"
     d="M 658.21812,399.73898 H 233.53813 V 123.40965 h 424.67999 v 276.32933"
     inkscape:connector-curvature="0" /><path
     style="opacity:0.99800002;fill:url(#linearGradient2229);fill-rule:evenodd;stroke-width:0.25410673"
     inkscape:connector-curvature="0"
     d="m 510.42123,261.57432 a 64.543112,64.543112 0 0 1 -64.54311,64.54311 64.543112,64.543112 0 0 1 -64.54311,-64.54311 64.543112,64.543112 0 0 1 64.54311,-64.54312 64.543112,64.543112 0 0 1 64.54311,64.54312 z"
     id="path1931" /><path
     inkscape:connector-curvature="0"
     d="m 433.19311,262.66952 -0.0167,0.0167 -45.31994,46.20423 h 116.03022 l 0.0135,-0.43912 h -0.0135 c -0.0211,0 -25.55297,-1.54642 -47.10885,-8.03537 -10.78251,-3.2457 -20.55698,-7.73856 -25.62666,-13.83077 -2.53507,-3.04623 -3.89876,-6.48074 -3.66117,-10.38763 0.23748,-3.90689 2.08456,-8.30243 6.03326,-13.23845 z"
     dominant-baseline="auto"
     style="color:#000000;font-variant-ligatures:normal;font-variant-position:normal;font-variant-caps:normal;font-variant-numeric:normal;font-variant-alternates:normal;font-feature-settings:normal;text-indent:0;text-decoration:none;text-decoration-line:none;text-decoration-style:solid;text-decoration-color:#000000;text-transform:none;text-orientation:mixed;dominant-baseline:auto;white-space:normal;shape-padding:0;opacity:0.99800002;isolation:auto;mix-blend-mode:normal;solid-color:#000000;fill:url(#linearGradient931);stroke:url(#linearGradient931);stroke-width:0.13446566;stroke-opacity:0.94118;color-rendering:auto;image-rendering:auto;shape-rendering:auto"
     id="path1933" /><path
     inkscape:connector-curvature="0"
     d="m 457.97614,258.34208 0.0159,-0.0159 43.22609,-44.06973 H 390.54956 l -0.0121,0.41884 h 0.0121 c 0.0202,0 24.37315,1.47496 44.93369,7.66386 10.28421,3.09578 19.60713,7.38078 24.44278,13.1917 2.41793,2.90545 3.7186,6.18114 3.49194,9.90762 -0.22652,3.72622 -1.98824,7.91898 -5.7545,12.62682 z"
     dominant-baseline="auto"
     style="color:#000000;font-variant-ligatures:normal;font-variant-position:normal;font-variant-caps:normal;font-variant-numeric:normal;font-variant-alternates:normal;font-feature-settings:normal;text-indent:0;text-decoration:none;text-decoration-line:none;text-decoration-style:solid;text-decoration-color:#000000;text-transform:none;text-orientation:mixed;dominant-baseline:auto;white-space:normal;shape-padding:0;opacity:0.99800002;isolation:auto;mix-blend-mode:normal;solid-color:#000000;fill:url(#linearGradient963);stroke-width:0.25410673;stroke-opacity:0;color-rendering:auto;image-rendering:auto;shape-rendering:auto"
     id="path1935" /><path
     id="path216"
     style="fill:url(#linearGradient2311);fill-opacity:1.0;fill-rule:nonzero;stroke:none;stroke-width:0.13333333;opacity:0.5"
     d="M 867.47141,576.16297 H 591.67812 c -8.16266,0 -14.78,-6.61613 -14.78,-14.77866 v 0 c 0,-8.16294 6.61734,-14.78014 14.78,-14.78014 h 275.79329 c 8.1627,0 14.78,6.6172 14.78,14.78014 v 0 c 0,8.16253 -6.6173,14.77866 -14.78,14.77866"
     inkscape:connector-curvature="0" /><path
     id="path218"
     style="fill:url(#linearGradient2022);fill-opacity:1.0;fill-rule:nonzero;stroke:none;stroke-width:0.13333333"
     d="M 833.23281,565.05631 H 626.40479 c -8.89067,0 -16.096,-7.20787 -16.096,-16.09907 V 426.02298 c 0,-8.88934 7.20533,-16.096 16.096,-16.096 h 206.82802 c 8.8893,0 16.096,7.20666 16.096,16.096 v 122.93426 c 0,8.8912 -7.2067,16.09907 -16.096,16.09907"
     inkscape:connector-curvature="0" /><path
     id="path220"
     style="fill:#ffffff;fill-opacity:1;fill-rule:nonzero;stroke:none;stroke-width:0.13333333"
     d="M 828.93141,555.15471 H 630.70479 v -135.3264 h 198.22662 v 135.3264"
     inkscape:connector-curvature="0" /><path
     id="path226"
     style="fill:#a1afdf;fill-opacity:1;fill-rule:nonzero;stroke:none;stroke-width:0.13333333"
     d="m 839.49541,474.26298 v 0 c -1.5693,0 -2.8426,1.27186 -2.8426,2.8412 v 20.77346 c 0,1.5692 1.2733,2.84267 2.8426,2.84267 v 0 c 1.5694,0 2.8414,-1.27347 2.8414,-2.84267 v -20.77346 c 0,-1.56934 -1.272,-2.8412 -2.8414,-2.8412"
     inkscape:connector-curvature="0" /><path
     id="path244"
     style="fill:url(#linearGradient2319);fill-opacity:1.0;fill-rule:nonzero;stroke:none;stroke-width:0.13333333;opacity:0.5"
     d="M 307.10346,571.57244 H 89.6728 c -8.16267,0 -14.78,-6.61773 -14.78,-14.78027 v 0 c 0,-8.16253 6.61733,-14.77866 14.78,-14.77866 h 217.43066 c 8.16267,0 14.78,6.61613 14.78,14.77866 v 0 c 0,8.16254 -6.61733,14.78027 -14.78,14.78027"
     inkscape:connector-curvature="0" /><path
     id="path246"
     style="fill:url(#linearGradient2014);fill-opacity:1.0;fill-rule:nonzero;stroke:none;stroke-width:0.13333333"
     d="m 117.34613,540.69631 v -206.828 c 0,-8.89066 7.20667,-16.096 16.09734,-16.096 H 256.3768 c 8.89066,0 16.09733,7.20534 16.09733,16.096 v 206.828 c 0,8.88906 -7.20667,16.09586 -16.09733,16.09586 H 133.44347 c -8.89067,0 -16.09734,-7.2068 -16.09734,-16.09586"
     inkscape:connector-curvature="0" /><path
     id="path248"
     style="fill:#ffffff;fill-opacity:1;fill-rule:nonzero;stroke:none;stroke-width:0.13333333"
     d="M 127.24613,536.39484 V 338.16831 h 135.328 v 198.22653 h -135.328"
     inkscape:connector-curvature="0" /><path
     id="path250"
     style="fill:#a1afdf;fill-opacity:1;fill-rule:nonzero;stroke:none;stroke-width:0.13333333"
     d="m 208.13813,546.95884 v 0 c 0,-1.5692 -1.272,-2.84267 -2.84133,-2.84267 h -20.77333 c -1.56934,0 -2.84134,1.27347 -2.84134,2.84267 v 0 c 0,1.56933 1.272,2.8412 2.84134,2.8412 h 20.77333 c 1.56933,0 2.84133,-1.27187 2.84133,-2.8412"
     inkscape:connector-curvature="0" /><g
     transform="matrix(0.57618741,0,0,0.57618741,400.1332,368.2071)"
     id="g2237"><path
       style="opacity:0.99800002;fill:url(#linearGradient2239);fill-rule:evenodd;stroke-width:0.25410673"
       inkscape:connector-curvature="0"
       d="m 636.72656,207.02365 a 64.543112,64.543112 0 0 1 -64.54311,64.54311 64.543112,64.543112 0 0 1 -64.54311,-64.54311 64.543112,64.543112 0 0 1 64.54311,-64.54312 64.543112,64.543112 0 0 1 64.54311,64.54312 z"
       id="path2231" /><path
       inkscape:connector-curvature="0"
       d="m 559.49844,208.11885 -0.0167,0.0167 -45.31994,46.20423 h 116.03022 l 0.0135,-0.43912 h -0.0135 c -0.0211,0 -25.55297,-1.54642 -47.10885,-8.03537 -10.78251,-3.2457 -20.55698,-7.73856 -25.62666,-13.83077 -2.53507,-3.04623 -3.89876,-6.48074 -3.66117,-10.38763 0.23748,-3.90689 2.08456,-8.30243 6.03326,-13.23845 z"
       dominant-baseline="auto"
       style="color:#000000;font-variant-ligatures:normal;font-variant-position:normal;font-variant-caps:normal;font-variant-numeric:normal;font-variant-alternates:normal;font-feature-settings:normal;text-indent:0;text-decoration:none;text-decoration-line:none;text-decoration-style:solid;text-decoration-color:#000000;text-transform:none;text-orientation:mixed;dominant-baseline:auto;white-space:normal;shape-padding:0;opacity:0.99800002;isolation:auto;mix-blend-mode:normal;solid-color:#000000;fill:url(#linearGradient2241);stroke:url(#linearGradient2243);stroke-width:0.13446566;stroke-opacity:0.94118;color-rendering:auto;image-rendering:auto;shape-rendering:auto"
       id="path2233" /><path
       inkscape:connector-curvature="0"
       d="m 584.28147,203.79141 0.0159,-0.0159 43.22609,-44.06973 H 516.85489 l -0.0121,0.41884 h 0.0121 c 0.0202,0 24.37315,1.47496 44.93369,7.66386 10.28421,3.09578 19.60713,7.38078 24.44278,13.1917 2.41793,2.90545 3.7186,6.18114 3.49194,9.90762 -0.22652,3.72622 -1.98824,7.91898 -5.7545,12.62682 z"
       dominant-baseline="auto"
       style="color:#000000;font-variant-ligatures:normal;font-variant-position:normal;font-variant-caps:normal;font-variant-numeric:normal;font-variant-alternates:normal;font-feature-settings:normal;text-indent:0;text-decoration:none;text-decoration-line:none;text-decoration-style:solid;text-decoration-color:#000000;text-transform:none;text-orientation:mixed;dominant-baseline:auto;white-space:normal;shape-padding:0;opacity:0.99800002;isolation:auto;mix-blend-mode:normal;solid-color:#000000;fill:url(#linearGradient2245);stroke-width:0.25410673;stroke-opacity:0;color-rendering:auto;image-rendering:auto;shape-rendering:auto"
       id="path2235" /></g><g
     id="g2253"
     transform="matrix(0.39455344,0,0,0.39455344,-30.84682,355.59969)"><path
       id="path2247"
       d="m 636.72656,207.02365 a 64.543112,64.543112 0 0 1 -64.54311,64.54311 64.543112,64.543112 0 0 1 -64.54311,-64.54311 64.543112,64.543112 0 0 1 64.54311,-64.54312 64.543112,64.543112 0 0 1 64.54311,64.54312 z"
       inkscape:connector-curvature="0"
       style="opacity:0.99800002;fill:url(#linearGradient2255);fill-rule:evenodd;stroke-width:0.25410673" /><path
       id="path2249"
       style="color:#000000;font-variant-ligatures:normal;font-variant-position:normal;font-variant-caps:normal;font-variant-numeric:normal;font-variant-alternates:normal;font-feature-settings:normal;text-indent:0;text-decoration:none;text-decoration-line:none;text-decoration-style:solid;text-decoration-color:#000000;text-transform:none;text-orientation:mixed;dominant-baseline:auto;white-space:normal;shape-padding:0;opacity:0.99800002;isolation:auto;mix-blend-mode:normal;solid-color:#000000;fill:url(#linearGradient2257);stroke:url(#linearGradient2259);stroke-width:0.13446566;stroke-opacity:0.94118;color-rendering:auto;image-rendering:auto;shape-rendering:auto"
       dominant-baseline="auto"
       d="m 559.49844,208.11885 -0.0167,0.0167 -45.31994,46.20423 h 116.03022 l 0.0135,-0.43912 h -0.0135 c -0.0211,0 -25.55297,-1.54642 -47.10885,-8.03537 -10.78251,-3.2457 -20.55698,-7.73856 -25.62666,-13.83077 -2.53507,-3.04623 -3.89876,-6.48074 -3.66117,-10.38763 0.23748,-3.90689 2.08456,-8.30243 6.03326,-13.23845 z"
       inkscape:connector-curvature="0" /><path
       id="path2251"
       style="color:#000000;font-variant-ligatures:normal;font-variant-position:normal;font-variant-caps:normal;font-variant-numeric:normal;font-variant-alternates:normal;font-feature-settings:normal;text-indent:0;text-decoration:none;text-decoration-line:none;text-decoration-style:solid;text-decoration-color:#000000;text-transform:none;text-orientation:mixed;dominant-baseline:auto;white-space:normal;shape-padding:0;opacity:0.99800002;isolation:auto;mix-blend-mode:normal;solid-color:#000000;fill:url(#linearGradient2261);stroke-width:0.25410673;stroke-opacity:0;color-rendering:auto;image-rendering:auto;shape-rendering:auto"
       dominant-baseline="auto"
       d="m 584.28147,203.79141 0.0159,-0.0159 43.22609,-44.06973 H 516.85489 l -0.0121,0.41884 h 0.0121 c 0.0202,0 24.37315,1.47496 44.93369,7.66386 10.28421,3.09578 19.60713,7.38078 24.44278,13.1917 2.41793,2.90545 3.7186,6.18114 3.49194,9.90762 -0.22652,3.72622 -1.98824,7.91898 -5.7545,12.62682 z"
       inkscape:connector-curvature="0" /></g></svg>